<svg width="512" height="512" viewBox="0 0 512 512" fill="none" xmlns="http://www.w3.org/2000/svg">
<rect width="512" height="512" fill="#55B339"/>
<path d="M91 212C91 251.244 104.229 289.342 128.549 320.142C152.87 350.942 186.862 372.644 225.037 381.744C263.211 390.844 303.339 386.81 338.939 370.294C374.538 353.778 403.531 325.744 421.235 290.72" stroke="white" stroke-width="24" stroke-linecap="round"/>
<path d="M381.373 196.767L283.198 134.918C298.909 120.401 319.054 111.603 340.38 109.946C361.707 108.289 382.969 113.869 400.733 125.785C418.498 137.7 431.727 155.257 438.284 175.617C443.428 191.59 444.23 208.556 440.731 224.803" stroke="white" stroke-width="13.0816" stroke-linecap="round"/>
<path d="M245 421.31C235.793 420.622 226.61 419.201 217.537 417.038C208.073 414.782 198.866 411.752 190 408" stroke="white" stroke-width="24" stroke-linecap="round"/>
<path d="M396.602 153.23C396.319 153.379 396.037 153.529 395.755 153.678C390.671 156.362 385.586 159.046 380.502 161.729C380.22 161.879 379.937 162.028 379.654 162.177C379.103 161.803 378.552 161.428 378 161.054C378.034 160.736 378.068 160.418 378.103 160.101C378.718 154.385 379.334 148.669 379.95 142.953C379.984 142.636 380.019 142.318 380.053 142C388.312 143.717 393.003 148.203 396.602 153.23Z" fill="white"/>
<path d="M408.987 187.681C408.703 187.535 408.419 187.389 408.135 187.243C403.023 184.612 397.911 181.981 392.799 179.35C392.515 179.204 392.231 179.057 391.947 178.911C391.938 178.245 391.929 177.578 391.92 176.912C392.2 176.758 392.481 176.604 392.76 176.45C397.799 173.682 402.837 170.913 407.876 168.145C408.155 167.991 408.436 167.837 408.716 167.683C412.039 175.437 411.047 181.851 408.987 187.681Z" fill="white"/>
<path d="M354.94 134.663C354.959 134.982 354.977 135.3 354.996 135.619C355.326 141.359 355.657 147.098 355.987 152.838C356.006 153.157 356.024 153.476 356.042 153.795C355.473 154.141 354.903 154.487 354.334 154.834C354.059 154.671 353.784 154.508 353.509 154.345C348.565 151.411 343.621 148.477 338.677 145.544C338.402 145.381 338.127 145.218 337.852 145.055C342.843 138.254 348.873 135.85 354.94 134.663Z" fill="white"/>
<path d="M236.44 267.212L245.896 309.364C247.718 317.482 242.629 324.035 234.823 325.786C227.017 327.537 219.616 323.786 217.795 315.668L193.558 207.633C191.737 199.515 196.826 192.962 204.632 191.211C212.438 189.46 219.839 193.211 221.66 201.329L230.836 242.232L286.259 229.799L277.082 188.896C275.261 180.777 280.35 174.225 288.156 172.473C295.962 170.722 303.363 174.473 305.184 182.591L329.42 290.626C331.242 298.744 326.153 305.297 318.347 307.049C310.541 308.8 303.14 305.049 301.319 296.931L291.862 254.778L236.44 267.212Z" fill="white"/>
<path d="M145 163C72.1428 159.343 65.9193 146.031 129.5 97.9998C146.667 31.2867 163.935 39.2073 199.5 81.4998C273.548 107.451 263.697 121.724 213.5 147M169.5 110L180 156.5" stroke="white" stroke-width="13" stroke-linecap="round"/>
</svg>
